<mxfile host="app.diagrams.net" modified="2024-01-27T19:35:58.709Z" agent="Mozilla/5.0 (X11; Linux x86_64) AppleWebKit/537.36 (KHTML, like Gecko) Chrome/120.0.0.0 Safari/537.36" version="23.0.2" etag="29ugXzLsbAgBMxZJ7AUk" type="github">
  <diagram name="Page-1" id="91Y762dhvRGXg6q_JU9T">
    <mxGraphModel>
      <root>
        <mxCell id="0" />
        <mxCell id="1" parent="0" />
      </root>
    </mxGraphModel>
  </diagram>
</mxfile>
